<?xml version="1.0" encoding="utf-8"?><svg width="auto" height="3220" style="overflow:visible " version="1.1" xmlns="http://www.w3.org/2000/svg"><rect x="20" y="20" width="200" height="40" style="fill:white;stroke:black;stroke-width:1" /><text x="30" y="30" font-size="10" style="fill:blue">xs:schema</text><text x="30" y="40" font-size="8" style="fill:black">xmlns: https://uniovi.es</text><text x="30" y="50" font-size="8" style="fill:black">elementFormDefault: qualified</text><text x="30" y="60" font-size="8" style="fill:black">targetNamespace: https://uniovi.es</text><text x="30" y="70" font-size="8" style="fill:black">xmlns:xs: http://www.w3.org/2001/XMLSchema</text><rect x="240" y="20" width="200" height="40" style="fill:white;stroke:black;stroke-width:1" /><text x="250" y="30" font-size="10" style="fill:blue">xs:element</text><path d="M220 40 C240 40 220 40 240 40" style="fill:transparent;stroke:black" /><text x="250" y="40" font-size="8" style="fill:black">name: persona</text><rect x="460" y="20" width="200" height="40" style="fill:white;stroke:black;stroke-width:1" /><text x="470" y="30" font-size="10" style="fill:blue">xs:complexType</text><path d="M440 40 C460 40 440 40 460 40" style="fill:transparent;stroke:black" /><rect x="680" y="20" width="200" height="40" style="fill:white;stroke:black;stroke-width:1" /><text x="690" y="30" font-size="10" style="fill:blue">xs:sequence</text><path d="M660 40 C680 40 660 40 680 40" style="fill:transparent;stroke:black" /><rect x="900" y="20" width="200" height="40" style="fill:white;stroke:black;stroke-width:1" /><text x="910" y="30" font-size="10" style="fill:blue">xs:element</text><path d="M880 40 C900 40 880 40 900 40" style="fill:transparent;stroke:black" /><text x="910" y="40" font-size="8" style="fill:black">ref: datos</text><rect x="900" y="70" width="200" height="40" style="fill:white;stroke:black;stroke-width:1" /><text x="910" y="80" font-size="10" style="fill:blue">xs:sequence</text><path d="M880 40 C900 40 880 90 900 90" style="fill:transparent;stroke:black" /><text x="910" y="90" font-size="8" style="fill:black">minOccurs: 0</text><text x="910" y="100" font-size="8" style="fill:black">maxOccurs: 1</text><rect x="1120" y="70" width="200" height="40" style="fill:white;stroke:black;stroke-width:1" /><text x="1130" y="80" font-size="10" style="fill:blue">xs:element</text><path d="M1100 90 C1120 90 1100 90 1120 90" style="fill:transparent;stroke:black" /><text x="1130" y="90" font-size="8" style="fill:black">ref: persona</text><rect x="1120" y="120" width="200" height="40" style="fill:white;stroke:black;stroke-width:1" /><text x="1130" y="130" font-size="10" style="fill:blue">xs:element</text><path d="M1100 90 C1120 90 1100 140 1120 140" style="fill:transparent;stroke:black" /><text x="1130" y="140" font-size="8" style="fill:black">ref: persona</text><rect x="1120" y="170" width="200" height="40" style="fill:white;stroke:black;stroke-width:1" /><text x="1130" y="180" font-size="10" style="fill:blue">xs:element</text><path d="M1100 90 C1120 90 1100 190 1120 190" style="fill:transparent;stroke:black" /><text x="1130" y="190" font-size="8" style="fill:black">ref: persona</text><rect x="240" y="420" width="200" height="40" style="fill:white;stroke:black;stroke-width:1" /><text x="250" y="430" font-size="10" style="fill:blue">xs:element</text><path d="M220 40 C240 40 220 440 240 440" style="fill:transparent;stroke:black" /><text x="250" y="440" font-size="8" style="fill:black">name: datos</text><rect x="460" y="420" width="200" height="40" style="fill:white;stroke:black;stroke-width:1" /><text x="470" y="430" font-size="10" style="fill:blue">xs:complexType</text><path d="M440 440 C460 440 440 440 460 440" style="fill:transparent;stroke:black" /><rect x="680" y="420" width="200" height="40" style="fill:white;stroke:black;stroke-width:1" /><text x="690" y="430" font-size="10" style="fill:blue">xs:sequence</text><path d="M660 440 C680 440 660 440 680 440" style="fill:transparent;stroke:black" /><rect x="900" y="420" width="200" height="40" style="fill:white;stroke:black;stroke-width:1" /><text x="910" y="430" font-size="10" style="fill:blue">xs:element</text><path d="M880 440 C900 440 880 440 900 440" style="fill:transparent;stroke:black" /><text x="910" y="440" font-size="8" style="fill:black">ref: nombre</text><rect x="900" y="470" width="200" height="40" style="fill:white;stroke:black;stroke-width:1" /><text x="910" y="480" font-size="10" style="fill:blue">xs:element</text><path d="M880 440 C900 440 880 490 900 490" style="fill:transparent;stroke:black" /><text x="910" y="490" font-size="8" style="fill:black">ref: apellidos</text><rect x="900" y="520" width="200" height="40" style="fill:white;stroke:black;stroke-width:1" /><text x="910" y="530" font-size="10" style="fill:blue">xs:element</text><path d="M880 440 C900 440 880 540 900 540" style="fill:transparent;stroke:black" /><text x="910" y="540" font-size="8" style="fill:black">ref: fnacimiento</text><rect x="900" y="570" width="200" height="40" style="fill:white;stroke:black;stroke-width:1" /><text x="910" y="580" font-size="10" style="fill:blue">xs:element</text><path d="M880 440 C900 440 880 590 900 590" style="fill:transparent;stroke:black" /><text x="910" y="590" font-size="8" style="fill:black">ref: lnacimiento</text><rect x="900" y="620" width="200" height="40" style="fill:white;stroke:black;stroke-width:1" /><text x="910" y="630" font-size="10" style="fill:blue">xs:element</text><path d="M880 440 C900 440 880 640 900 640" style="fill:transparent;stroke:black" /><text x="910" y="640" font-size="8" style="fill:black">ref: lresidencia</text><rect x="900" y="670" width="200" height="40" style="fill:white;stroke:black;stroke-width:1" /><text x="910" y="680" font-size="10" style="fill:blue">xs:element</text><path d="M880 440 C900 440 880 690 900 690" style="fill:transparent;stroke:black" /><text x="910" y="690" font-size="8" style="fill:black">ref: fotografias</text><rect x="900" y="720" width="200" height="40" style="fill:white;stroke:black;stroke-width:1" /><text x="910" y="730" font-size="10" style="fill:blue">xs:element</text><path d="M880 440 C900 440 880 740 900 740" style="fill:transparent;stroke:black" /><text x="910" y="740" font-size="8" style="fill:black">ref: videos</text><rect x="900" y="770" width="200" height="40" style="fill:white;stroke:black;stroke-width:1" /><text x="910" y="780" font-size="10" style="fill:blue">xs:element</text><path d="M880 440 C900 440 880 790 900 790" style="fill:transparent;stroke:black" /><text x="910" y="790" font-size="8" style="fill:black">ref: comentario</text><rect x="240" y="970" width="200" height="40" style="fill:white;stroke:black;stroke-width:1" /><text x="250" y="980" font-size="10" style="fill:blue">xs:element</text><path d="M220 40 C240 40 220 990 240 990" style="fill:transparent;stroke:black" /><text x="250" y="990" font-size="8" style="fill:black">name: nombre</text><text x="250" y="1000" font-size="8" style="fill:black">type: xs:string</text><rect x="240" y="1020" width="200" height="40" style="fill:white;stroke:black;stroke-width:1" /><text x="250" y="1030" font-size="10" style="fill:blue">xs:element</text><path d="M220 40 C240 40 220 1040 240 1040" style="fill:transparent;stroke:black" /><text x="250" y="1040" font-size="8" style="fill:black">name: apellidos</text><text x="250" y="1050" font-size="8" style="fill:black">type: xs:string</text><rect x="240" y="1070" width="200" height="40" style="fill:white;stroke:black;stroke-width:1" /><text x="250" y="1080" font-size="10" style="fill:blue">xs:element</text><path d="M220 40 C240 40 220 1090 240 1090" style="fill:transparent;stroke:black" /><text x="250" y="1090" font-size="8" style="fill:black">name: fnacimiento</text><text x="250" y="1100" font-size="8" style="fill:black">type: xs:date</text><rect x="240" y="1120" width="200" height="40" style="fill:white;stroke:black;stroke-width:1" /><text x="250" y="1130" font-size="10" style="fill:blue">xs:element</text><path d="M220 40 C240 40 220 1140 240 1140" style="fill:transparent;stroke:black" /><text x="250" y="1140" font-size="8" style="fill:black">name: lnacimiento</text><rect x="460" y="1120" width="200" height="40" style="fill:white;stroke:black;stroke-width:1" /><text x="470" y="1130" font-size="10" style="fill:blue">xs:complexType</text><path d="M440 1140 C460 1140 440 1140 460 1140" style="fill:transparent;stroke:black" /><rect x="680" y="1120" width="200" height="40" style="fill:white;stroke:black;stroke-width:1" /><text x="690" y="1130" font-size="10" style="fill:blue">xs:sequence</text><path d="M660 1140 C680 1140 660 1140 680 1140" style="fill:transparent;stroke:black" /><rect x="900" y="1120" width="200" height="40" style="fill:white;stroke:black;stroke-width:1" /><text x="910" y="1130" font-size="10" style="fill:blue">xs:element</text><path d="M880 1140 C900 1140 880 1140 900 1140" style="fill:transparent;stroke:black" /><text x="910" y="1140" font-size="8" style="fill:black">ref: lnombre</text><rect x="900" y="1170" width="200" height="40" style="fill:white;stroke:black;stroke-width:1" /><text x="910" y="1180" font-size="10" style="fill:blue">xs:element</text><path d="M880 1140 C900 1140 880 1190 900 1190" style="fill:transparent;stroke:black" /><text x="910" y="1190" font-size="8" style="fill:black">ref: coordenadas</text><rect x="240" y="1370" width="200" height="40" style="fill:white;stroke:black;stroke-width:1" /><text x="250" y="1380" font-size="10" style="fill:blue">xs:element</text><path d="M220 40 C240 40 220 1390 240 1390" style="fill:transparent;stroke:black" /><text x="250" y="1390" font-size="8" style="fill:black">name: lresidencia</text><rect x="460" y="1370" width="200" height="40" style="fill:white;stroke:black;stroke-width:1" /><text x="470" y="1380" font-size="10" style="fill:blue">xs:complexType</text><path d="M440 1390 C460 1390 440 1390 460 1390" style="fill:transparent;stroke:black" /><rect x="680" y="1370" width="200" height="40" style="fill:white;stroke:black;stroke-width:1" /><text x="690" y="1380" font-size="10" style="fill:blue">xs:sequence</text><path d="M660 1390 C680 1390 660 1390 680 1390" style="fill:transparent;stroke:black" /><rect x="900" y="1370" width="200" height="40" style="fill:white;stroke:black;stroke-width:1" /><text x="910" y="1380" font-size="10" style="fill:blue">xs:element</text><path d="M880 1390 C900 1390 880 1390 900 1390" style="fill:transparent;stroke:black" /><text x="910" y="1390" font-size="8" style="fill:black">ref: lnombre</text><rect x="900" y="1420" width="200" height="40" style="fill:white;stroke:black;stroke-width:1" /><text x="910" y="1430" font-size="10" style="fill:blue">xs:element</text><path d="M880 1390 C900 1390 880 1440 900 1440" style="fill:transparent;stroke:black" /><text x="910" y="1440" font-size="8" style="fill:black">ref: coordenadas</text><rect x="240" y="1620" width="200" height="40" style="fill:white;stroke:black;stroke-width:1" /><text x="250" y="1630" font-size="10" style="fill:blue">xs:element</text><path d="M220 40 C240 40 220 1640 240 1640" style="fill:transparent;stroke:black" /><text x="250" y="1640" font-size="8" style="fill:black">name: fotografias</text><rect x="460" y="1620" width="200" height="40" style="fill:white;stroke:black;stroke-width:1" /><text x="470" y="1630" font-size="10" style="fill:blue">xs:complexType</text><path d="M440 1640 C460 1640 440 1640 460 1640" style="fill:transparent;stroke:black" /><rect x="680" y="1620" width="200" height="40" style="fill:white;stroke:black;stroke-width:1" /><text x="690" y="1630" font-size="10" style="fill:blue">xs:sequence</text><path d="M660 1640 C680 1640 660 1640 680 1640" style="fill:transparent;stroke:black" /><text x="690" y="1640" font-size="8" style="fill:black">minOccurs: 1</text><text x="690" y="1650" font-size="8" style="fill:black">maxOccurs: unbounded</text><rect x="900" y="1620" width="200" height="40" style="fill:white;stroke:black;stroke-width:1" /><text x="910" y="1630" font-size="10" style="fill:blue">xs:element</text><path d="M880 1640 C900 1640 880 1640 900 1640" style="fill:transparent;stroke:black" /><text x="910" y="1640" font-size="8" style="fill:black">ref: fotografia</text><rect x="240" y="1820" width="200" height="40" style="fill:white;stroke:black;stroke-width:1" /><text x="250" y="1830" font-size="10" style="fill:blue">xs:element</text><path d="M220 40 C240 40 220 1840 240 1840" style="fill:transparent;stroke:black" /><text x="250" y="1840" font-size="8" style="fill:black">name: videos</text><rect x="460" y="1820" width="200" height="40" style="fill:white;stroke:black;stroke-width:1" /><text x="470" y="1830" font-size="10" style="fill:blue">xs:complexType</text><path d="M440 1840 C460 1840 440 1840 460 1840" style="fill:transparent;stroke:black" /><rect x="680" y="1820" width="200" height="40" style="fill:white;stroke:black;stroke-width:1" /><text x="690" y="1830" font-size="10" style="fill:blue">xs:sequence</text><path d="M660 1840 C680 1840 660 1840 680 1840" style="fill:transparent;stroke:black" /><text x="690" y="1840" font-size="8" style="fill:black">minOccurs: 0</text><text x="690" y="1850" font-size="8" style="fill:black">maxOccurs: 3</text><rect x="900" y="1820" width="200" height="40" style="fill:white;stroke:black;stroke-width:1" /><text x="910" y="1830" font-size="10" style="fill:blue">xs:element</text><path d="M880 1840 C900 1840 880 1840 900 1840" style="fill:transparent;stroke:black" /><text x="910" y="1840" font-size="8" style="fill:black">ref: video</text><rect x="240" y="2020" width="200" height="40" style="fill:white;stroke:black;stroke-width:1" /><text x="250" y="2030" font-size="10" style="fill:blue">xs:element</text><path d="M220 40 C240 40 220 2040 240 2040" style="fill:transparent;stroke:black" /><text x="250" y="2040" font-size="8" style="fill:black">name: comentario</text><text x="250" y="2050" font-size="8" style="fill:black">type: xs:string</text><rect x="240" y="2070" width="200" height="40" style="fill:white;stroke:black;stroke-width:1" /><text x="250" y="2080" font-size="10" style="fill:blue">xs:element</text><path d="M220 40 C240 40 220 2090 240 2090" style="fill:transparent;stroke:black" /><text x="250" y="2090" font-size="8" style="fill:black">name: fotografia</text><rect x="460" y="2070" width="200" height="40" style="fill:white;stroke:black;stroke-width:1" /><text x="470" y="2080" font-size="10" style="fill:blue">xs:complexType</text><path d="M440 2090 C460 2090 440 2090 460 2090" style="fill:transparent;stroke:black" /><rect x="680" y="2070" width="200" height="40" style="fill:white;stroke:black;stroke-width:1" /><text x="690" y="2080" font-size="10" style="fill:blue">xs:sequence</text><path d="M660 2090 C680 2090 660 2090 680 2090" style="fill:transparent;stroke:black" /><rect x="900" y="2070" width="200" height="40" style="fill:white;stroke:black;stroke-width:1" /><text x="910" y="2080" font-size="10" style="fill:blue">xs:element</text><path d="M880 2090 C900 2090 880 2090 900 2090" style="fill:transparent;stroke:black" /><text x="910" y="2090" font-size="8" style="fill:black">ref: enlace</text><rect x="680" y="2170" width="200" height="40" style="fill:white;stroke:black;stroke-width:1" /><text x="690" y="2180" font-size="10" style="fill:blue">xs:attribute</text><path d="M660 2090 C680 2090 660 2190 680 2190" style="fill:transparent;stroke:black" /><text x="690" y="2190" font-size="8" style="fill:black">default: </text><text x="690" y="2200" font-size="8" style="fill:black">name: descripcion</text><text x="690" y="2210" font-size="8" style="fill:black">type: xs:string</text><rect x="240" y="2320" width="200" height="40" style="fill:white;stroke:black;stroke-width:1" /><text x="250" y="2330" font-size="10" style="fill:blue">xs:element</text><path d="M220 40 C240 40 220 2340 240 2340" style="fill:transparent;stroke:black" /><text x="250" y="2340" font-size="8" style="fill:black">name: video</text><rect x="460" y="2320" width="200" height="40" style="fill:white;stroke:black;stroke-width:1" /><text x="470" y="2330" font-size="10" style="fill:blue">xs:complexType</text><path d="M440 2340 C460 2340 440 2340 460 2340" style="fill:transparent;stroke:black" /><rect x="680" y="2320" width="200" height="40" style="fill:white;stroke:black;stroke-width:1" /><text x="690" y="2330" font-size="10" style="fill:blue">xs:sequence</text><path d="M660 2340 C680 2340 660 2340 680 2340" style="fill:transparent;stroke:black" /><rect x="900" y="2320" width="200" height="40" style="fill:white;stroke:black;stroke-width:1" /><text x="910" y="2330" font-size="10" style="fill:blue">xs:element</text><path d="M880 2340 C900 2340 880 2340 900 2340" style="fill:transparent;stroke:black" /><text x="910" y="2340" font-size="8" style="fill:black">ref: enlace</text><rect x="680" y="2420" width="200" height="40" style="fill:white;stroke:black;stroke-width:1" /><text x="690" y="2430" font-size="10" style="fill:blue">xs:attribute</text><path d="M660 2340 C680 2340 660 2440 680 2440" style="fill:transparent;stroke:black" /><text x="690" y="2440" font-size="8" style="fill:black">default: </text><text x="690" y="2450" font-size="8" style="fill:black">name: descripcion</text><text x="690" y="2460" font-size="8" style="fill:black">type: xs:string</text><rect x="240" y="2570" width="200" height="40" style="fill:white;stroke:black;stroke-width:1" /><text x="250" y="2580" font-size="10" style="fill:blue">xs:element</text><path d="M220 40 C240 40 220 2590 240 2590" style="fill:transparent;stroke:black" /><text x="250" y="2590" font-size="8" style="fill:black">name: enlace</text><text x="250" y="2600" font-size="8" style="fill:black">type: xs:string</text><rect x="240" y="2620" width="200" height="40" style="fill:white;stroke:black;stroke-width:1" /><text x="250" y="2630" font-size="10" style="fill:blue">xs:element</text><path d="M220 40 C240 40 220 2640 240 2640" style="fill:transparent;stroke:black" /><text x="250" y="2640" font-size="8" style="fill:black">name: descripcion</text><text x="250" y="2650" font-size="8" style="fill:black">type: xs:string</text><rect x="240" y="2670" width="200" height="40" style="fill:white;stroke:black;stroke-width:1" /><text x="250" y="2680" font-size="10" style="fill:blue">xs:element</text><path d="M220 40 C240 40 220 2690 240 2690" style="fill:transparent;stroke:black" /><text x="250" y="2690" font-size="8" style="fill:black">name: lnombre</text><text x="250" y="2700" font-size="8" style="fill:black">type: xs:string</text><rect x="240" y="2720" width="200" height="40" style="fill:white;stroke:black;stroke-width:1" /><text x="250" y="2730" font-size="10" style="fill:blue">xs:element</text><path d="M220 40 C240 40 220 2740 240 2740" style="fill:transparent;stroke:black" /><text x="250" y="2740" font-size="8" style="fill:black">name: coordenadas</text><rect x="460" y="2720" width="200" height="40" style="fill:white;stroke:black;stroke-width:1" /><text x="470" y="2730" font-size="10" style="fill:blue">xs:complexType</text><path d="M440 2740 C460 2740 440 2740 460 2740" style="fill:transparent;stroke:black" /><rect x="680" y="2720" width="200" height="40" style="fill:white;stroke:black;stroke-width:1" /><text x="690" y="2730" font-size="10" style="fill:blue">xs:sequence</text><path d="M660 2740 C680 2740 660 2740 680 2740" style="fill:transparent;stroke:black" /><rect x="900" y="2720" width="200" height="40" style="fill:white;stroke:black;stroke-width:1" /><text x="910" y="2730" font-size="10" style="fill:blue">xs:element</text><path d="M880 2740 C900 2740 880 2740 900 2740" style="fill:transparent;stroke:black" /><text x="910" y="2740" font-size="8" style="fill:black">ref: longitud</text><rect x="900" y="2770" width="200" height="40" style="fill:white;stroke:black;stroke-width:1" /><text x="910" y="2780" font-size="10" style="fill:blue">xs:element</text><path d="M880 2740 C900 2740 880 2790 900 2790" style="fill:transparent;stroke:black" /><text x="910" y="2790" font-size="8" style="fill:black">ref: latitud</text><rect x="900" y="2820" width="200" height="40" style="fill:white;stroke:black;stroke-width:1" /><text x="910" y="2830" font-size="10" style="fill:blue">xs:element</text><path d="M880 2740 C900 2740 880 2840 900 2840" style="fill:transparent;stroke:black" /><text x="910" y="2840" font-size="8" style="fill:black">ref: altitud</text><rect x="240" y="3020" width="200" height="40" style="fill:white;stroke:black;stroke-width:1" /><text x="250" y="3030" font-size="10" style="fill:blue">xs:element</text><path d="M220 40 C240 40 220 3040 240 3040" style="fill:transparent;stroke:black" /><text x="250" y="3040" font-size="8" style="fill:black">name: longitud</text><text x="250" y="3050" font-size="8" style="fill:black">type: xs:double</text><rect x="240" y="3070" width="200" height="40" style="fill:white;stroke:black;stroke-width:1" /><text x="250" y="3080" font-size="10" style="fill:blue">xs:element</text><path d="M220 40 C240 40 220 3090 240 3090" style="fill:transparent;stroke:black" /><text x="250" y="3090" font-size="8" style="fill:black">name: latitud</text><text x="250" y="3100" font-size="8" style="fill:black">type: xs:double</text><rect x="240" y="3120" width="200" height="40" style="fill:white;stroke:black;stroke-width:1" /><text x="250" y="3130" font-size="10" style="fill:blue">xs:element</text><path d="M220 40 C240 40 220 3140 240 3140" style="fill:transparent;stroke:black" /><text x="250" y="3140" font-size="8" style="fill:black">name: altitud</text><text x="250" y="3150" font-size="8" style="fill:black">type: xs:double</text></svg>